<?xml version="1.0" standalone="no"?>
<!DOCTYPE svg PUBLIC "-//W3C//DTD SVG 20010904//EN"
 "http://www.w3.org/TR/2001/REC-SVG-20010904/DTD/svg10.dtd">
<svg version="1.0" xmlns="http://www.w3.org/2000/svg"
 width="700.000000pt" height="700.000000pt" viewBox="0 0 700.000000 700.000000"
 preserveAspectRatio="xMidYMid meet">
<metadata>
Created by potrace 1.14, written by Peter Selinger 2001-2017
</metadata>
<g transform="translate(0.000000,700.000000) scale(0.100000,-0.100000)"
fill="#000000" stroke="none">
<path d="M4219 5687 c-74 -21 -133 -62 -208 -144 -39 -43 -238 -271 -443 -508
-436 -503 -805 -911 -821 -907 -6 2 -193 114 -415 249 -223 135 -427 254 -453
264 -100 38 -189 11 -274 -83 -56 -61 -209 -302 -255 -400 -58 -123 -57 -220
0 -290 18 -22 167 -123 390 -264 198 -126 360 -233 360 -237 0 -9 -359 -416
-462 -523 -79 -83 -118 -157 -118 -226 0 -58 24 -131 59 -180 25 -35 304 -271
415 -352 88 -63 182 -60 277 9 33 23 625 676 685 753 1 2 200 -115 441 -260
1015 -613 1270 -766 1302 -783 55 -28 137 -31 201 -6 51 20 215 151 692 551
27 24 57 62 73 95 24 49 27 63 22 137 -2 46 -88 612 -191 1258 -103 646 -191
1217 -196 1267 -18 191 -107 292 -305 346 -33 9 -157 56 -275 103 -318 127
-332 132 -396 138 -35 3 -78 0 -105 -7z m191 -1213 c0 -3 54 -330 120 -726 67
-397 119 -725 118 -729 -4 -10 -1024 568 -1021 578 4 13 768 882 776 883 4 0
7 -3 7 -6z"/>
<path d="M846 3688 c-23 -114 -27 -167 -16 -251 20 -158 81 -285 191 -397 98
-101 99 -101 144 -29 20 33 78 104 127 156 73 78 87 98 76 108 -7 6 -69 47
-138 90 -162 102 -271 208 -325 318 -21 42 -39 77 -41 77 -1 0 -9 -33 -18 -72z"/>
<path d="M1072 2349 c-39 -100 -40 -309 -3 -427 44 -141 128 -274 228 -360
141 -122 371 -311 432 -354 239 -171 550 -166 808 14 86 60 146 120 344 343
l171 193 557 -335 c306 -185 629 -380 718 -434 173 -103 263 -140 393 -160
183 -28 386 32 558 165 100 77 544 446 636 529 172 154 256 340 257 567 0 58
-5 128 -11 155 -22 107 -18 105 -54 24 -54 -125 -135 -227 -254 -321 -37 -29
-175 -143 -307 -253 -303 -253 -323 -268 -420 -315 -106 -52 -197 -72 -320
-72 -116 1 -221 25 -313 71 -33 17 -368 216 -744 442 -375 226 -686 413 -690
415 -3 2 -75 -73 -159 -168 -200 -227 -261 -289 -340 -348 -78 -59 -190 -113
-279 -136 -84 -22 -234 -22 -320 0 -94 24 -215 86 -294 153 -38 32 -148 123
-245 203 -151 125 -183 157 -233 230 -32 47 -69 112 -82 145 -23 58 -25 59
-34 34z"/>
</g>
</svg>
